# xmcd CD database file
#
# Track frame offsets:
#	150
#	21474
#	43459
#	50815
#	74919
#	97348
#	119026
#	140330
#	162148
#	168736
#	190245
#	213401
#
# Disc length: 3118 seconds
#
# Revision: 0
# Processed by: cddbd v1.5.2PL0 Copyright (c) Steve Scherf et al.
# Submitted via: CD2WAV32(JP) R3.22
#
DISCID=cc0c2c0c
DTITLE=黒住憲五 - Days of Wonder
DYEAR=2005
DGENRE=JPop
TTITLE0=シンプルな一日
TTITLE1=C’est Mignon
TTITLE2=DO-KO-ZO PART-I
TTITLE3=ありふれた空の下で
TTITLE4=最上階のBarで
TTITLE5=You’re the only one
TTITLE6=Days Of Wonder (ルシア Ver. II)
TTITLE7=南風の日
TTITLE8=DO-KO-ZO PART-II
TTITLE9=TRUE LOVE
TTITLE10=SAILING
TTITLE11=YOUR FRIEND
EXTD=
EXTT0=
EXTT1=
EXTT2=
EXTT3=
EXTT4=
EXTT5=
EXTT6=
EXTT7=
EXTT8=
EXTT9=
EXTT10=
EXTT11=
PLAYORDER=
